# xmcd CD database file
#
# Track frame offsets:
#	150
#	21355
#	40034
#	59880
#	79262
#	102763
#	122928
#	142376
#	162912
#	182158
#
# Disc length: 2679 seconds
#
# Revision: 3
# Processed by: cddbd v1.5.1PL2 Copyright (c) Steve Scherf et al.
# Submitted via: CDex 1.51
#
DISCID=930a750a
DTITLE=PRINCESS PRINCESS - Teleportation
DYEAR=1987
DGENRE=Rock
TTITLE0=ガールズ・ナイト
TTITLE1=恋はバランス
TTITLE2=言わないで
TTITLE3=ソーロング、ドリーマー
TTITLE4=思い出の隙間
TTITLE5=ユー・アー・マイ・スターシップ
TTITLE6=海にひとしずく
TTITLE7=ヒプノタイズド
TTITLE8=モーション・エモーション
TTITLE9=ヴァイブレーション
EXTD=YEAR: 1987
EXTT0=
EXTT1=
EXTT2=
EXTT3=
EXTT4=
EXTT5=
EXTT6=
EXTT7=
EXTT8=
EXTT9=
PLAYORDER=
